<svg width="104" height="86" viewBox="0 0 104 86" fill="none" xmlns="http://www.w3.org/2000/svg">
<rect x="30" y="22.4292" width="8.59977" height="3.60829" transform="rotate(-31 30 22.4292)" fill="#755FFE" fill-opacity="0.9"/>
<rect x="60.1209" y="3" width="10.2703" height="3.60829" transform="rotate(36 60.1209 3)" fill="#F62584" fill-opacity="0.9"/>
<path d="M40.1895 37.6389L35.2732 35.7518L39.3657 32.4378L40.1895 37.6389Z" fill="#03A3F5" fill-opacity="0.45"/>
<path d="M78.1895 21.6389L73.2732 19.7518L77.3657 16.4378L78.1895 21.6389Z" fill="#03A3F5" fill-opacity="0.45"/>
<rect x="94.5379" y="3.16284" width="10.2703" height="1.93779" transform="rotate(24 94.5379 3.16284)" fill="#4BC8EF" fill-opacity="0.45"/>
<rect x="87.8558" y="34.9025" width="10.2703" height="1.93779" transform="rotate(107 87.8558 34.9025)" fill="#4BC8EF" fill-opacity="0.65"/>
<circle cx="88.8468" cy="25.7146" r="0.835253" fill="#9DED1A" fill-opacity="0.65"/>
<circle cx="45.2898" cy="83.9265" r="1.52016" fill="#4BC8EF" fill-opacity="0.65"/>
<rect x="58.3053" y="33.576" width="5.25876" height="1.93779" transform="rotate(-116 58.3053 33.576)" fill="#BA3E03" fill-opacity="0.6"/>
<path d="M42.0429 7.28721L41.599 8.83514L39.9897 8.89134L39.4389 7.37814L40.7079 6.38673L42.0429 7.28721Z" fill="#FFED36" fill-opacity="0.9"/>
<rect x="20.5618" y="66.1115" width="6.92926" height="1.93779" transform="rotate(125 20.5618 66.1115)" fill="#9DED1A" fill-opacity="0.65"/>
<rect x="37" y="52" width="5.25876" height="1.93779" fill="#03A3F5" fill-opacity="0.85"/>
<circle cx="20.8353" cy="27.8353" r="0.835253" fill="#9DED1A"/>
<circle cx="1.52016" cy="25.5202" r="1.52016" fill="#DCBCFA" fill-opacity="0.75"/>
<path d="M16.0429 40.2872L15.599 41.8351L13.9897 41.8913L13.4389 40.3781L14.7079 39.3867L16.0429 40.2872Z" fill="#FFED36" fill-opacity="0.9"/>
<path d="M30.5318 64.6498L31.2839 63.2352L30.171 62.0828L31.7487 62.361L32.5009 60.9464L32.7238 62.5329L34.3016 62.8111L32.8616 63.5134L33.0846 65.0999L31.9717 63.9475L30.5318 64.6498Z" fill="#9DED1A"/>
<rect x="19.0262" width="10.2703" height="3.60829" transform="rotate(57 19.0262 0)" fill="#DCBCFA" fill-opacity="0.6"/>
</svg>
