<svg width="250" height="250" viewBox="0 0 250 250" fill="none" xmlns="http://www.w3.org/2000/svg">
<rect width="250" height="250" fill="#CCCCCB"/>
<path d="M86.2784 131V119.364H93.4943V120.875H88.0341V124.42H92.9773V125.926H88.0341V131H86.2784ZM98.6378 131.176C97.7779 131.176 97.0374 130.992 96.4162 130.625C95.7988 130.254 95.3215 129.733 94.9844 129.062C94.651 128.388 94.4844 127.598 94.4844 126.693C94.4844 125.799 94.651 125.011 94.9844 124.33C95.3215 123.648 95.7912 123.116 96.3935 122.733C96.9995 122.35 97.7079 122.159 98.5185 122.159C99.0109 122.159 99.4882 122.241 99.9503 122.403C100.412 122.566 100.827 122.822 101.195 123.17C101.562 123.519 101.852 123.972 102.064 124.528C102.276 125.081 102.382 125.754 102.382 126.545V127.148H95.4446V125.875H100.717C100.717 125.428 100.626 125.032 100.445 124.688C100.263 124.339 100.007 124.064 99.6776 123.864C99.3518 123.663 98.9692 123.562 98.5298 123.562C98.0526 123.562 97.6359 123.68 97.2798 123.915C96.9276 124.146 96.6548 124.449 96.4616 124.824C96.2723 125.195 96.1776 125.598 96.1776 126.034V127.028C96.1776 127.612 96.2798 128.108 96.4844 128.517C96.6927 128.926 96.9825 129.239 97.3537 129.455C97.7249 129.667 98.1586 129.773 98.6548 129.773C98.9768 129.773 99.2704 129.727 99.5355 129.636C99.8007 129.542 100.03 129.402 100.223 129.216C100.416 129.03 100.564 128.801 100.666 128.528L102.274 128.818C102.145 129.292 101.914 129.706 101.581 130.062C101.251 130.415 100.837 130.689 100.337 130.886C99.8404 131.08 99.2741 131.176 98.6378 131.176ZM106.807 131.193C106.254 131.193 105.754 131.091 105.307 130.886C104.86 130.678 104.506 130.377 104.244 129.983C103.987 129.589 103.858 129.106 103.858 128.534C103.858 128.042 103.953 127.636 104.142 127.318C104.331 127 104.587 126.748 104.909 126.562C105.231 126.377 105.591 126.237 105.989 126.142C106.386 126.047 106.792 125.975 107.205 125.926C107.727 125.866 108.152 125.816 108.477 125.778C108.803 125.737 109.04 125.67 109.188 125.58C109.335 125.489 109.409 125.341 109.409 125.136V125.097C109.409 124.6 109.269 124.216 108.989 123.943C108.712 123.67 108.299 123.534 107.75 123.534C107.178 123.534 106.727 123.661 106.398 123.915C106.072 124.165 105.847 124.443 105.722 124.75L104.125 124.386C104.314 123.856 104.591 123.428 104.955 123.102C105.322 122.773 105.744 122.534 106.222 122.386C106.699 122.235 107.201 122.159 107.727 122.159C108.076 122.159 108.445 122.201 108.835 122.284C109.229 122.364 109.597 122.511 109.938 122.727C110.282 122.943 110.564 123.252 110.784 123.653C111.004 124.051 111.114 124.568 111.114 125.205V131H109.455V129.807H109.386C109.277 130.027 109.112 130.242 108.892 130.455C108.672 130.667 108.39 130.843 108.045 130.983C107.701 131.123 107.288 131.193 106.807 131.193ZM107.176 129.83C107.646 129.83 108.047 129.737 108.381 129.551C108.718 129.366 108.973 129.123 109.148 128.824C109.326 128.521 109.415 128.197 109.415 127.852V126.727C109.354 126.788 109.237 126.845 109.062 126.898C108.892 126.947 108.697 126.991 108.477 127.028C108.258 127.062 108.044 127.095 107.835 127.125C107.627 127.152 107.453 127.174 107.312 127.193C106.983 127.235 106.682 127.305 106.409 127.403C106.14 127.502 105.924 127.644 105.761 127.83C105.602 128.011 105.523 128.254 105.523 128.557C105.523 128.977 105.678 129.295 105.989 129.511C106.299 129.723 106.695 129.83 107.176 129.83ZM117.45 122.273V123.636H112.683V122.273H117.45ZM113.962 120.182H115.661V128.438C115.661 128.767 115.71 129.015 115.808 129.182C115.907 129.345 116.034 129.456 116.189 129.517C116.348 129.574 116.52 129.602 116.706 129.602C116.842 129.602 116.962 129.593 117.064 129.574C117.166 129.555 117.246 129.54 117.303 129.528L117.609 130.932C117.511 130.97 117.371 131.008 117.189 131.045C117.007 131.087 116.78 131.11 116.507 131.114C116.06 131.121 115.643 131.042 115.257 130.875C114.871 130.708 114.558 130.451 114.32 130.102C114.081 129.754 113.962 129.316 113.962 128.79V120.182ZM124.858 127.381V122.273H126.562V131H124.892V129.489H124.801C124.6 129.955 124.278 130.343 123.835 130.653C123.396 130.96 122.848 131.114 122.193 131.114C121.633 131.114 121.136 130.991 120.705 130.744C120.277 130.494 119.939 130.125 119.693 129.636C119.451 129.148 119.33 128.544 119.33 127.824V122.273H121.028V127.619C121.028 128.214 121.193 128.687 121.523 129.04C121.852 129.392 122.28 129.568 122.807 129.568C123.125 129.568 123.441 129.489 123.756 129.33C124.074 129.17 124.337 128.93 124.545 128.608C124.758 128.286 124.862 127.877 124.858 127.381ZM128.845 131V122.273H130.487V123.659H130.578C130.737 123.189 131.018 122.82 131.419 122.551C131.824 122.278 132.283 122.142 132.794 122.142C132.9 122.142 133.025 122.146 133.169 122.153C133.317 122.161 133.432 122.17 133.516 122.182V123.807C133.447 123.788 133.326 123.767 133.152 123.744C132.978 123.718 132.804 123.705 132.629 123.705C132.228 123.705 131.87 123.79 131.555 123.96C131.245 124.127 130.999 124.36 130.817 124.659C130.635 124.955 130.544 125.292 130.544 125.67V131H128.845ZM138.435 131.176C137.575 131.176 136.834 130.992 136.213 130.625C135.596 130.254 135.118 129.733 134.781 129.062C134.448 128.388 134.281 127.598 134.281 126.693C134.281 125.799 134.448 125.011 134.781 124.33C135.118 123.648 135.588 123.116 136.19 122.733C136.796 122.35 137.505 122.159 138.315 122.159C138.808 122.159 139.285 122.241 139.747 122.403C140.209 122.566 140.624 122.822 140.991 123.17C141.359 123.519 141.649 123.972 141.861 124.528C142.073 125.081 142.179 125.754 142.179 126.545V127.148H135.241V125.875H140.514C140.514 125.428 140.423 125.032 140.241 124.688C140.06 124.339 139.804 124.064 139.474 123.864C139.149 123.663 138.766 123.562 138.327 123.562C137.849 123.562 137.433 123.68 137.077 123.915C136.724 124.146 136.452 124.449 136.259 124.824C136.069 125.195 135.974 125.598 135.974 126.034V127.028C135.974 127.612 136.077 128.108 136.281 128.517C136.49 128.926 136.779 129.239 137.151 129.455C137.522 129.667 137.955 129.773 138.452 129.773C138.774 129.773 139.067 129.727 139.332 129.636C139.598 129.542 139.827 129.402 140.02 129.216C140.213 129.03 140.361 128.801 140.463 128.528L142.071 128.818C141.942 129.292 141.711 129.706 141.378 130.062C141.048 130.415 140.634 130.689 140.134 130.886C139.637 131.08 139.071 131.176 138.435 131.176ZM147.331 131.17C146.626 131.17 145.998 130.991 145.445 130.631C144.895 130.267 144.464 129.75 144.149 129.08C143.839 128.405 143.683 127.597 143.683 126.653C143.683 125.71 143.84 124.903 144.155 124.233C144.473 123.562 144.909 123.049 145.462 122.693C146.015 122.337 146.642 122.159 147.342 122.159C147.884 122.159 148.32 122.25 148.649 122.432C148.982 122.61 149.24 122.818 149.422 123.057C149.607 123.295 149.751 123.506 149.854 123.688H149.956V119.364H151.655V131H149.996V129.642H149.854C149.751 129.828 149.604 130.04 149.411 130.278C149.221 130.517 148.96 130.725 148.626 130.903C148.293 131.081 147.861 131.17 147.331 131.17ZM147.706 129.722C148.195 129.722 148.607 129.593 148.945 129.335C149.286 129.074 149.543 128.712 149.717 128.25C149.895 127.788 149.984 127.25 149.984 126.636C149.984 126.03 149.897 125.5 149.723 125.045C149.549 124.591 149.293 124.237 148.956 123.983C148.619 123.729 148.202 123.602 147.706 123.602C147.195 123.602 146.768 123.735 146.428 124C146.087 124.265 145.829 124.627 145.655 125.085C145.484 125.544 145.399 126.061 145.399 126.636C145.399 127.22 145.486 127.744 145.661 128.21C145.835 128.676 146.092 129.045 146.433 129.318C146.778 129.587 147.202 129.722 147.706 129.722ZM162.706 119.364V131H160.945V121.125H160.876L158.092 122.943V121.261L160.996 119.364H162.706Z" fill="#8E8E8E"/>
</svg>
