<svg width="250" height="250" viewBox="0 0 250 250" fill="none" xmlns="http://www.w3.org/2000/svg">
<rect width="250" height="250" fill="#CCCCCB"/>
<path d="M85.2784 131V119.364H92.4943V120.875H87.0341V124.42H91.9773V125.926H87.0341V131H85.2784ZM97.6378 131.176C96.7779 131.176 96.0374 130.992 95.4162 130.625C94.7988 130.254 94.3215 129.733 93.9844 129.062C93.651 128.388 93.4844 127.598 93.4844 126.693C93.4844 125.799 93.651 125.011 93.9844 124.33C94.3215 123.648 94.7912 123.116 95.3935 122.733C95.9995 122.35 96.7079 122.159 97.5185 122.159C98.0109 122.159 98.4882 122.241 98.9503 122.403C99.4124 122.566 99.8272 122.822 100.195 123.17C100.562 123.519 100.852 123.972 101.064 124.528C101.276 125.081 101.382 125.754 101.382 126.545V127.148H94.4446V125.875H99.7173C99.7173 125.428 99.6264 125.032 99.4446 124.688C99.2628 124.339 99.0071 124.064 98.6776 123.864C98.3518 123.663 97.9692 123.562 97.5298 123.562C97.0526 123.562 96.6359 123.68 96.2798 123.915C95.9276 124.146 95.6548 124.449 95.4616 124.824C95.2723 125.195 95.1776 125.598 95.1776 126.034V127.028C95.1776 127.612 95.2798 128.108 95.4844 128.517C95.6927 128.926 95.9825 129.239 96.3537 129.455C96.7249 129.667 97.1586 129.773 97.6548 129.773C97.9768 129.773 98.2704 129.727 98.5355 129.636C98.8007 129.542 99.0298 129.402 99.223 129.216C99.4162 129.03 99.5639 128.801 99.6662 128.528L101.274 128.818C101.145 129.292 100.914 129.706 100.581 130.062C100.251 130.415 99.8366 130.689 99.3366 130.886C98.8404 131.08 98.2741 131.176 97.6378 131.176ZM105.807 131.193C105.254 131.193 104.754 131.091 104.307 130.886C103.86 130.678 103.506 130.377 103.244 129.983C102.987 129.589 102.858 129.106 102.858 128.534C102.858 128.042 102.953 127.636 103.142 127.318C103.331 127 103.587 126.748 103.909 126.562C104.231 126.377 104.591 126.237 104.989 126.142C105.386 126.047 105.792 125.975 106.205 125.926C106.727 125.866 107.152 125.816 107.477 125.778C107.803 125.737 108.04 125.67 108.188 125.58C108.335 125.489 108.409 125.341 108.409 125.136V125.097C108.409 124.6 108.269 124.216 107.989 123.943C107.712 123.67 107.299 123.534 106.75 123.534C106.178 123.534 105.727 123.661 105.398 123.915C105.072 124.165 104.847 124.443 104.722 124.75L103.125 124.386C103.314 123.856 103.591 123.428 103.955 123.102C104.322 122.773 104.744 122.534 105.222 122.386C105.699 122.235 106.201 122.159 106.727 122.159C107.076 122.159 107.445 122.201 107.835 122.284C108.229 122.364 108.597 122.511 108.938 122.727C109.282 122.943 109.564 123.252 109.784 123.653C110.004 124.051 110.114 124.568 110.114 125.205V131H108.455V129.807H108.386C108.277 130.027 108.112 130.242 107.892 130.455C107.672 130.667 107.39 130.843 107.045 130.983C106.701 131.123 106.288 131.193 105.807 131.193ZM106.176 129.83C106.646 129.83 107.047 129.737 107.381 129.551C107.718 129.366 107.973 129.123 108.148 128.824C108.326 128.521 108.415 128.197 108.415 127.852V126.727C108.354 126.788 108.237 126.845 108.062 126.898C107.892 126.947 107.697 126.991 107.477 127.028C107.258 127.062 107.044 127.095 106.835 127.125C106.627 127.152 106.453 127.174 106.312 127.193C105.983 127.235 105.682 127.305 105.409 127.403C105.14 127.502 104.924 127.644 104.761 127.83C104.602 128.011 104.523 128.254 104.523 128.557C104.523 128.977 104.678 129.295 104.989 129.511C105.299 129.723 105.695 129.83 106.176 129.83ZM116.45 122.273V123.636H111.683V122.273H116.45ZM112.962 120.182H114.661V128.438C114.661 128.767 114.71 129.015 114.808 129.182C114.907 129.345 115.034 129.456 115.189 129.517C115.348 129.574 115.52 129.602 115.706 129.602C115.842 129.602 115.962 129.593 116.064 129.574C116.166 129.555 116.246 129.54 116.303 129.528L116.609 130.932C116.511 130.97 116.371 131.008 116.189 131.045C116.007 131.087 115.78 131.11 115.507 131.114C115.06 131.121 114.643 131.042 114.257 130.875C113.871 130.708 113.558 130.451 113.32 130.102C113.081 129.754 112.962 129.316 112.962 128.79V120.182ZM123.858 127.381V122.273H125.562V131H123.892V129.489H123.801C123.6 129.955 123.278 130.343 122.835 130.653C122.396 130.96 121.848 131.114 121.193 131.114C120.633 131.114 120.136 130.991 119.705 130.744C119.277 130.494 118.939 130.125 118.693 129.636C118.451 129.148 118.33 128.544 118.33 127.824V122.273H120.028V127.619C120.028 128.214 120.193 128.687 120.523 129.04C120.852 129.392 121.28 129.568 121.807 129.568C122.125 129.568 122.441 129.489 122.756 129.33C123.074 129.17 123.337 128.93 123.545 128.608C123.758 128.286 123.862 127.877 123.858 127.381ZM127.845 131V122.273H129.487V123.659H129.578C129.737 123.189 130.018 122.82 130.419 122.551C130.824 122.278 131.283 122.142 131.794 122.142C131.9 122.142 132.025 122.146 132.169 122.153C132.317 122.161 132.432 122.17 132.516 122.182V123.807C132.447 123.788 132.326 123.767 132.152 123.744C131.978 123.718 131.804 123.705 131.629 123.705C131.228 123.705 130.87 123.79 130.555 123.96C130.245 124.127 129.999 124.36 129.817 124.659C129.635 124.955 129.544 125.292 129.544 125.67V131H127.845ZM137.435 131.176C136.575 131.176 135.834 130.992 135.213 130.625C134.596 130.254 134.118 129.733 133.781 129.062C133.448 128.388 133.281 127.598 133.281 126.693C133.281 125.799 133.448 125.011 133.781 124.33C134.118 123.648 134.588 123.116 135.19 122.733C135.796 122.35 136.505 122.159 137.315 122.159C137.808 122.159 138.285 122.241 138.747 122.403C139.209 122.566 139.624 122.822 139.991 123.17C140.359 123.519 140.649 123.972 140.861 124.528C141.073 125.081 141.179 125.754 141.179 126.545V127.148H134.241V125.875H139.514C139.514 125.428 139.423 125.032 139.241 124.688C139.06 124.339 138.804 124.064 138.474 123.864C138.149 123.663 137.766 123.562 137.327 123.562C136.849 123.562 136.433 123.68 136.077 123.915C135.724 124.146 135.452 124.449 135.259 124.824C135.069 125.195 134.974 125.598 134.974 126.034V127.028C134.974 127.612 135.077 128.108 135.281 128.517C135.49 128.926 135.779 129.239 136.151 129.455C136.522 129.667 136.955 129.773 137.452 129.773C137.774 129.773 138.067 129.727 138.332 129.636C138.598 129.542 138.827 129.402 139.02 129.216C139.213 129.03 139.361 128.801 139.463 128.528L141.071 128.818C140.942 129.292 140.711 129.706 140.378 130.062C140.048 130.415 139.634 130.689 139.134 130.886C138.637 131.08 138.071 131.176 137.435 131.176ZM146.331 131.17C145.626 131.17 144.998 130.991 144.445 130.631C143.895 130.267 143.464 129.75 143.149 129.08C142.839 128.405 142.683 127.597 142.683 126.653C142.683 125.71 142.84 124.903 143.155 124.233C143.473 123.562 143.909 123.049 144.462 122.693C145.015 122.337 145.642 122.159 146.342 122.159C146.884 122.159 147.32 122.25 147.649 122.432C147.982 122.61 148.24 122.818 148.422 123.057C148.607 123.295 148.751 123.506 148.854 123.688H148.956V119.364H150.655V131H148.996V129.642H148.854C148.751 129.828 148.604 130.04 148.411 130.278C148.221 130.517 147.96 130.725 147.626 130.903C147.293 131.081 146.861 131.17 146.331 131.17ZM146.706 129.722C147.195 129.722 147.607 129.593 147.945 129.335C148.286 129.074 148.543 128.712 148.717 128.25C148.895 127.788 148.984 127.25 148.984 126.636C148.984 126.03 148.897 125.5 148.723 125.045C148.549 124.591 148.293 124.237 147.956 123.983C147.619 123.729 147.202 123.602 146.706 123.602C146.195 123.602 145.768 123.735 145.428 124C145.087 124.265 144.829 124.627 144.655 125.085C144.484 125.544 144.399 126.061 144.399 126.636C144.399 127.22 144.486 127.744 144.661 128.21C144.835 128.676 145.092 129.045 145.433 129.318C145.778 129.587 146.202 129.722 146.706 129.722ZM161.342 131.159C160.562 131.159 159.865 131.025 159.251 130.756C158.642 130.487 158.159 130.114 157.803 129.636C157.45 129.155 157.261 128.598 157.234 127.966H159.018C159.041 128.311 159.157 128.61 159.365 128.864C159.577 129.114 159.854 129.307 160.195 129.443C160.536 129.58 160.914 129.648 161.331 129.648C161.789 129.648 162.195 129.568 162.547 129.409C162.903 129.25 163.181 129.028 163.382 128.744C163.583 128.456 163.683 128.125 163.683 127.75C163.683 127.36 163.583 127.017 163.382 126.722C163.185 126.422 162.895 126.187 162.513 126.017C162.134 125.847 161.676 125.761 161.138 125.761H160.155V124.33H161.138C161.57 124.33 161.948 124.252 162.274 124.097C162.604 123.941 162.861 123.725 163.047 123.449C163.232 123.169 163.325 122.841 163.325 122.466C163.325 122.106 163.244 121.794 163.081 121.528C162.922 121.259 162.695 121.049 162.399 120.898C162.107 120.746 161.763 120.67 161.365 120.67C160.986 120.67 160.632 120.741 160.303 120.881C159.977 121.017 159.712 121.214 159.507 121.472C159.303 121.725 159.193 122.03 159.178 122.386H157.479C157.498 121.758 157.683 121.205 158.036 120.727C158.392 120.25 158.861 119.877 159.445 119.608C160.028 119.339 160.676 119.205 161.388 119.205C162.134 119.205 162.778 119.35 163.32 119.642C163.865 119.93 164.286 120.314 164.581 120.795C164.88 121.277 165.028 121.803 165.024 122.375C165.028 123.027 164.846 123.58 164.479 124.034C164.115 124.489 163.63 124.794 163.024 124.949V125.04C163.797 125.157 164.395 125.464 164.82 125.96C165.248 126.456 165.46 127.072 165.456 127.807C165.46 128.447 165.282 129.021 164.922 129.528C164.566 130.036 164.079 130.436 163.462 130.727C162.844 131.015 162.138 131.159 161.342 131.159Z" fill="#8E8E8E"/>
</svg>
