<svg width="125" height="125" viewBox="0 0 125 125" fill="none" xmlns="http://www.w3.org/2000/svg">
<rect width="125" height="125" fill="#D9D9D9"/>
<path d="M51.9432 60.1477H50.1705C50.1023 59.7689 49.9754 59.4356 49.7898 59.1477C49.6042 58.8598 49.3769 58.6155 49.108 58.4148C48.839 58.214 48.5379 58.0625 48.2045 57.9602C47.875 57.858 47.5246 57.8068 47.1534 57.8068C46.483 57.8068 45.8826 57.9754 45.3523 58.3125C44.8258 58.6496 44.4091 59.1439 44.1023 59.7955C43.7992 60.447 43.6477 61.2424 43.6477 62.1818C43.6477 63.1288 43.7992 63.928 44.1023 64.5795C44.4091 65.2311 44.8277 65.7235 45.358 66.0568C45.8883 66.3902 46.4848 66.5568 47.1477 66.5568C47.5152 66.5568 47.8636 66.5076 48.1932 66.4091C48.5265 66.3068 48.8277 66.1572 49.0966 65.9602C49.3655 65.7633 49.5928 65.5227 49.7784 65.2386C49.9678 64.9508 50.0985 64.6212 50.1705 64.25L51.9432 64.2557C51.8485 64.8277 51.6648 65.3542 51.392 65.8352C51.1231 66.3125 50.7765 66.7254 50.3523 67.0739C49.9318 67.4186 49.4508 67.6856 48.9091 67.875C48.3674 68.0644 47.7765 68.1591 47.1364 68.1591C46.1288 68.1591 45.2311 67.9205 44.4432 67.4432C43.6553 66.9621 43.0341 66.2746 42.5795 65.3807C42.1288 64.4867 41.9034 63.4205 41.9034 62.1818C41.9034 60.9394 42.1307 59.8731 42.5852 58.983C43.0398 58.089 43.661 57.4034 44.4489 56.9261C45.2367 56.4451 46.1326 56.2045 47.1364 56.2045C47.7538 56.2045 48.3295 56.2936 48.8636 56.4716C49.4015 56.6458 49.8845 56.9034 50.3125 57.2443C50.7405 57.5814 51.0947 57.9943 51.375 58.483C51.6553 58.9678 51.8447 59.5227 51.9432 60.1477ZM56.4474 68.1932C55.8944 68.1932 55.3944 68.0909 54.9474 67.8864C54.5005 67.678 54.1463 67.3769 53.8849 66.983C53.6274 66.589 53.4986 66.1061 53.4986 65.5341C53.4986 65.0417 53.5933 64.6364 53.7827 64.3182C53.9721 64 54.2277 63.7481 54.5497 63.5625C54.8717 63.3769 55.2315 63.2367 55.6293 63.142C56.027 63.0473 56.4323 62.9754 56.8452 62.9261C57.3679 62.8655 57.7921 62.8163 58.1179 62.7784C58.4437 62.7367 58.6804 62.6705 58.8281 62.5795C58.9759 62.4886 59.0497 62.3409 59.0497 62.1364V62.0966C59.0497 61.6004 58.9096 61.2159 58.6293 60.9432C58.3527 60.6705 57.9399 60.5341 57.3906 60.5341C56.8187 60.5341 56.3679 60.661 56.0384 60.9148C55.7126 61.1648 55.4872 61.4432 55.3622 61.75L53.7656 61.3864C53.955 60.8561 54.2315 60.428 54.5952 60.1023C54.9626 59.7727 55.3849 59.5341 55.8622 59.3864C56.3395 59.2348 56.8414 59.1591 57.3679 59.1591C57.7164 59.1591 58.0857 59.2008 58.4759 59.2841C58.8698 59.3636 59.2372 59.5114 59.5781 59.7273C59.9228 59.9432 60.205 60.2519 60.4247 60.6534C60.6444 61.0511 60.7543 61.5682 60.7543 62.2045V68H59.0952V66.8068H59.027C58.9171 67.0265 58.7524 67.2424 58.5327 67.4545C58.313 67.6667 58.0308 67.8428 57.6861 67.983C57.3414 68.1231 56.9285 68.1932 56.4474 68.1932ZM56.8168 66.8295C57.2865 66.8295 57.688 66.7367 58.0213 66.5511C58.3584 66.3655 58.6141 66.1231 58.7884 65.8239C58.9664 65.5208 59.0554 65.197 59.0554 64.8523V63.7273C58.9948 63.7879 58.8774 63.8447 58.7031 63.8977C58.5327 63.947 58.3376 63.9905 58.1179 64.0284C57.8982 64.0625 57.6842 64.0947 57.4759 64.125C57.2675 64.1515 57.0933 64.1742 56.9531 64.1932C56.6236 64.2348 56.3224 64.3049 56.0497 64.4034C55.7808 64.5019 55.5649 64.6439 55.402 64.8295C55.2429 65.0114 55.1634 65.2538 55.1634 65.5568C55.1634 65.9773 55.3187 66.2955 55.6293 66.5114C55.9399 66.7235 56.3357 66.8295 56.8168 66.8295ZM64.7159 62.8182V68H63.017V59.2727H64.6477V60.6932H64.7557C64.9564 60.2311 65.2708 59.8598 65.6989 59.5795C66.1307 59.2992 66.6742 59.1591 67.3295 59.1591C67.9242 59.1591 68.4451 59.2841 68.892 59.5341C69.339 59.7803 69.6856 60.1477 69.9318 60.6364C70.178 61.125 70.3011 61.7292 70.3011 62.4489V68H68.6023V62.6534C68.6023 62.0208 68.4375 61.5265 68.108 61.1705C67.7784 60.8106 67.3258 60.6307 66.75 60.6307C66.3561 60.6307 66.0057 60.7159 65.6989 60.8864C65.3958 61.0568 65.1553 61.3068 64.9773 61.6364C64.803 61.9621 64.7159 62.3561 64.7159 62.8182ZM81.206 56.3636V68H79.4446V58.125H79.3764L76.5923 59.9432V58.2614L79.4957 56.3636H81.206Z" fill="#8E8E8E"/>
</svg>
