<svg width="125" height="125" viewBox="0 0 125 125" fill="none" xmlns="http://www.w3.org/2000/svg">
<rect width="125" height="125" fill="#D9D9D9"/>
<path d="M50.9432 60.1477H49.1705C49.1023 59.7689 48.9754 59.4356 48.7898 59.1477C48.6042 58.8598 48.3769 58.6155 48.108 58.4148C47.839 58.214 47.5379 58.0625 47.2045 57.9602C46.875 57.858 46.5246 57.8068 46.1534 57.8068C45.483 57.8068 44.8826 57.9754 44.3523 58.3125C43.8258 58.6496 43.4091 59.1439 43.1023 59.7955C42.7992 60.447 42.6477 61.2424 42.6477 62.1818C42.6477 63.1288 42.7992 63.928 43.1023 64.5795C43.4091 65.2311 43.8277 65.7235 44.358 66.0568C44.8883 66.3902 45.4848 66.5568 46.1477 66.5568C46.5152 66.5568 46.8636 66.5076 47.1932 66.4091C47.5265 66.3068 47.8277 66.1572 48.0966 65.9602C48.3655 65.7633 48.5928 65.5227 48.7784 65.2386C48.9678 64.9508 49.0985 64.6212 49.1705 64.25L50.9432 64.2557C50.8485 64.8277 50.6648 65.3542 50.392 65.8352C50.1231 66.3125 49.7765 66.7254 49.3523 67.0739C48.9318 67.4186 48.4508 67.6856 47.9091 67.875C47.3674 68.0644 46.7765 68.1591 46.1364 68.1591C45.1288 68.1591 44.2311 67.9205 43.4432 67.4432C42.6553 66.9621 42.0341 66.2746 41.5795 65.3807C41.1288 64.4867 40.9034 63.4205 40.9034 62.1818C40.9034 60.9394 41.1307 59.8731 41.5852 58.983C42.0398 58.089 42.661 57.4034 43.4489 56.9261C44.2367 56.4451 45.1326 56.2045 46.1364 56.2045C46.7538 56.2045 47.3295 56.2936 47.8636 56.4716C48.4015 56.6458 48.8845 56.9034 49.3125 57.2443C49.7405 57.5814 50.0947 57.9943 50.375 58.483C50.6553 58.9678 50.8447 59.5227 50.9432 60.1477ZM55.4474 68.1932C54.8944 68.1932 54.3944 68.0909 53.9474 67.8864C53.5005 67.678 53.1463 67.3769 52.8849 66.983C52.6274 66.589 52.4986 66.1061 52.4986 65.5341C52.4986 65.0417 52.5933 64.6364 52.7827 64.3182C52.9721 64 53.2277 63.7481 53.5497 63.5625C53.8717 63.3769 54.2315 63.2367 54.6293 63.142C55.027 63.0473 55.4323 62.9754 55.8452 62.9261C56.3679 62.8655 56.7921 62.8163 57.1179 62.7784C57.4437 62.7367 57.6804 62.6705 57.8281 62.5795C57.9759 62.4886 58.0497 62.3409 58.0497 62.1364V62.0966C58.0497 61.6004 57.9096 61.2159 57.6293 60.9432C57.3527 60.6705 56.9399 60.5341 56.3906 60.5341C55.8187 60.5341 55.3679 60.661 55.0384 60.9148C54.7126 61.1648 54.4872 61.4432 54.3622 61.75L52.7656 61.3864C52.955 60.8561 53.2315 60.428 53.5952 60.1023C53.9626 59.7727 54.3849 59.5341 54.8622 59.3864C55.3395 59.2348 55.8414 59.1591 56.3679 59.1591C56.7164 59.1591 57.0857 59.2008 57.4759 59.2841C57.8698 59.3636 58.2372 59.5114 58.5781 59.7273C58.9228 59.9432 59.205 60.2519 59.4247 60.6534C59.6444 61.0511 59.7543 61.5682 59.7543 62.2045V68H58.0952V66.8068H58.027C57.9171 67.0265 57.7524 67.2424 57.5327 67.4545C57.313 67.6667 57.0308 67.8428 56.6861 67.983C56.3414 68.1231 55.9285 68.1932 55.4474 68.1932ZM55.8168 66.8295C56.2865 66.8295 56.688 66.7367 57.0213 66.5511C57.3584 66.3655 57.6141 66.1231 57.7884 65.8239C57.9664 65.5208 58.0554 65.197 58.0554 64.8523V63.7273C57.9948 63.7879 57.8774 63.8447 57.7031 63.8977C57.5327 63.947 57.3376 63.9905 57.1179 64.0284C56.8982 64.0625 56.6842 64.0947 56.4759 64.125C56.2675 64.1515 56.0933 64.1742 55.9531 64.1932C55.6236 64.2348 55.3224 64.3049 55.0497 64.4034C54.7808 64.5019 54.5649 64.6439 54.402 64.8295C54.2429 65.0114 54.1634 65.2538 54.1634 65.5568C54.1634 65.9773 54.3187 66.2955 54.6293 66.5114C54.9399 66.7235 55.3357 66.8295 55.8168 66.8295ZM63.7159 62.8182V68H62.017V59.2727H63.6477V60.6932H63.7557C63.9564 60.2311 64.2708 59.8598 64.6989 59.5795C65.1307 59.2992 65.6742 59.1591 66.3295 59.1591C66.9242 59.1591 67.4451 59.2841 67.892 59.5341C68.339 59.7803 68.6856 60.1477 68.9318 60.6364C69.178 61.125 69.3011 61.7292 69.3011 62.4489V68H67.6023V62.6534C67.6023 62.0208 67.4375 61.5265 67.108 61.1705C66.7784 60.8106 66.3258 60.6307 65.75 60.6307C65.3561 60.6307 65.0057 60.7159 64.6989 60.8864C64.3958 61.0568 64.1553 61.3068 63.9773 61.6364C63.803 61.9621 63.7159 62.3561 63.7159 62.8182ZM75.7912 68V66.7273L79.7287 62.6477C80.1491 62.2045 80.4957 61.8163 80.7685 61.483C81.045 61.1458 81.2514 60.8258 81.3878 60.5227C81.5241 60.2197 81.5923 59.8977 81.5923 59.5568C81.5923 59.1705 81.5014 58.8371 81.3196 58.5568C81.1378 58.2727 80.8897 58.0549 80.5753 57.9034C80.2609 57.7481 79.9067 57.6705 79.5128 57.6705C79.0961 57.6705 78.7325 57.7557 78.4219 57.9261C78.1113 58.0966 77.8726 58.3371 77.706 58.6477C77.5393 58.9583 77.456 59.322 77.456 59.7386H75.7798C75.7798 59.0303 75.9427 58.411 76.2685 57.8807C76.5942 57.3504 77.0412 56.9394 77.6094 56.6477C78.1776 56.3523 78.8234 56.2045 79.5469 56.2045C80.2779 56.2045 80.9219 56.3504 81.4787 56.642C82.0393 56.9299 82.4768 57.3239 82.7912 57.8239C83.1056 58.3201 83.2628 58.8807 83.2628 59.5057C83.2628 59.9375 83.1813 60.3598 83.0185 60.7727C82.8594 61.1856 82.581 61.6458 82.1832 62.1534C81.7855 62.6572 81.2325 63.2689 80.5241 63.9886L78.2116 66.4091V66.4943H83.4503V68H75.7912Z" fill="#8E8E8E"/>
</svg>
